:SAMPLES-PER-SECOND 30
:FULLY-SPECIFIED
:DEGREES
203
root  -4.01483 40.6263 -2.71999 -0.80693 -55.7328 2.5174
RightUpLeg  4.93474 -1.94252 3.36776
RightLeg  -5.92094 -50.9253 6.42061
RightFoot  -4.25285 -0.0249499 0.119503
RightToes  -3.13006e-008 1.75238e-005 3.56266e-009
Spine  -5.38062 1.22244 -2.88508
Spine1  13.1699 3.4516 -5.44511
HEad  -9.06497 -27.4376 5.64114
LeftShoulder1  3.91757 -8.57973 -26.3115
LeftArm  5.566 -30.0563 -52.5319
LeftForeArm  137.365 -80.6308 -109.409
LeftHand  -0.852683 -6.31157 8.78501
RightShoulder  3.98954 9.11737 25.5179
RightArm  -38.8283 19.8065 13.495
RightForeArm  128.224 80.4734 107.057
RightHand  -1.96036 11.3456 -13.8617
LeftUpLeg  -5.63071 -0.37155 4.01911
LeftLeg  1.41786 -18.5474 0.880352
LeftFoot  1.45786 0.787481 -7.09502
LeftToes  4.78685e-008 1.46778e-008 1.34523e-009
204
root  -4.09462 40.6405 -2.61837 -0.898385 -55.9556 2.7928
RightUpLeg  5.07619 -1.82217 3.26014
RightLeg  -6.21959 -50.812 6.39301
RightFoot  -4.14767 -0.0356034 0.286366
RightToes  -3.13006e-008 1.75238e-005 3.56266e-009
Spine  -5.17249 0.558177 -2.79897
Spine1  10.4827 2.71051 -5.93728
HEad  -8.21936 -26.3724 3.42296
LeftShoulder1  3.82708 -8.61671 -25.4313
LeftArm  3.02439 -36.0577 -54.0041
LeftForeArm  113.774 -81.2894 -80.8419
LeftHand  -0.77974 -6.76068 7.79117
RightShoulder  3.49004 8.28276 23.4473
RightArm  -41.5181 20.1913 12.2788
RightForeArm  133.147 79.8911 114.401
RightHand  -1.35659 10.0575 -10.5695
LeftUpLeg  -5.48091 -0.450433 3.83724
LeftLeg  1.30299 -18.2807 0.897092
LeftFoot  1.33553 0.783274 -7.11948
LeftToes  4.78685e-008 1.46778e-008 1.34523e-009
205
root  -4.16785 40.649 -2.53213 -0.893985 -55.9537 3.01781
RightUpLeg  5.15825 -1.83916 3.11087
RightLeg  -6.57732 -50.7918 6.59188
RightFoot  -4.1011 -0.0454382 0.439801
RightToes  -3.13006e-008 1.75238e-005 3.56266e-009
Spine  -4.7201 -0.257303 -2.74467
Spine1  7.68594 1.76988 -6.37674
HEad  -7.81449 -25.2401 2.29326
LeftShoulder1  3.7594 -8.63054 -24.8072
LeftArm  -1.60839 -40.1684 -54.5037
LeftForeArm  93.8735 -80.1883 -61.5836
LeftHand  -0.621042 -7.16822 6.07964
RightShoulder  3.20966 7.9156 21.8405
RightArm  -45.2165 20.1906 10.8991
RightForeArm  132.816 79.3981 117.896
RightHand  -0.982782 10.4841 -7.56579
LeftUpLeg  -5.44215 -0.531922 3.68811
LeftLeg  1.16895 -18.1746 0.891383
LeftFoot  1.25218 0.778056 -7.11621
LeftToes  4.78685e-008 1.46778e-008 1.34523e-009
206
root  -4.24229 40.6586 -2.46779 -0.975367 -56.2303 3.23248
RightUpLeg  5.30242 -1.88462 2.9703
RightLeg  -6.89696 -50.5303 6.79878
RightFoot  -4.10657 -0.046042 0.449289
RightToes  -3.13006e-008 1.75238e-005 3.56266e-009
Spine  -3.9573 -0.883046 -1.82823
Spine1  4.82935 1.22253 -8.00877
HEad  -7.18265 -23.7366 1.3972
LeftShoulder1  3.5858 -8.34343 -24.0588
LeftArm  -6.29163 -42.6814 -56.1806
LeftForeArm  78.3428 -78.437 -48.8509
LeftHand  -0.574036 -6.22265 6.08173
RightShoulder  2.96107 7.3672 20.925
RightArm  -49.5497 20.0915 9.76355
RightForeArm  130.484 79.5239 116.151
RightHand  -0.906316 10.3011 -7.08343
LeftUpLeg  -5.27069 -0.368753 3.68077
LeftLeg  1.03541 -18.0758 0.721758
LeftFoot  1.16899 0.762837 -7.01203
LeftToes  4.78685e-008 1.46778e-008 1.34523e-009
207
root  -4.32289 40.6682 -2.39413 -1.04819 -56.5728 3.60512
RightUpLeg  5.24797 -1.95172 2.72237
RightLeg  -6.95696 -50.1085 6.78229
RightFoot  -4.16095 -0.0528409 0.554333
RightToes  -3.13006e-008 1.75238e-005 3.56266e-009
Spine  -4.22004 -1.21415 -1.17329
Spine1  3.3079 0.987162 -9.24379
HEad  -6.97328 -22.5793 1.22453
LeftShoulder1  3.50727 -8.15548 -23.8623
LeftArm  -11.2924 -43.9255 -57.746
LeftForeArm  69.6984 -77.1943 -43.536
LeftHand  -0.636386 -5.09143 7.34325
RightShoulder  2.7812 6.96407 20.1813
RightArm  -54.2211 18.8965 8.93896
RightForeArm  125.292 79.7429 112.454
RightHand  -1.05423 10.0479 -8.30285
LeftUpLeg  -5.10613 -0.387232 3.53995
LeftLeg  0.653897 -17.6697 0.71276
LeftFoot  1.13154 0.768321 -7.03952
LeftToes  4.78685e-008 1.46778e-008 1.34523e-009
208
root  -4.41616 40.6768 -2.34092 -1.2735 -56.7371 3.966
RightUpLeg  5.39757 -2.02038 2.52911
RightLeg  -7.10354 -49.8445 6.81626
RightFoot  -4.16892 -0.0609793 0.679608
RightToes  -3.13006e-008 1.75238e-005 3.56266e-009
Spine  -4.1646 -1.37526 -0.817402
Spine1  1.97918 0.809795 -9.87958
HEad  -6.43655 -23.0412 1.00088
LeftShoulder1  3.63293 -8.20895 -24.8495
LeftArm  -16.8393 -44.1096 -58.3901
LeftForeArm  69.0911 -77.3411 -44.8074
LeftHand  -0.750307 -4.78946 8.8353
RightShoulder  2.44829 6.17756 18.8352
RightArm  -58.9041 16.9883 9.90692
RightForeArm  120.25 79.9246 108.682
RightHand  -1.11944 9.37788 -9.1481
LeftUpLeg  -4.77707 -0.375545 3.42717
LeftLeg  0.223307 -17.4421 0.715257
LeftFoot  1.12382 0.782506 -7.17549
LeftToes  4.78685e-008 1.46778e-008 1.34523e-009
209
root  -4.50954 40.6892 -2.30258 -1.61194 -57.1307 4.25234
RightUpLeg  5.74009 -2.03 2.40946
RightLeg  -7.33973 -49.4397 6.88975
RightFoot  -4.20621 -0.0585556 0.640441
RightToes  -3.13006e-008 1.75238e-005 3.56266e-009
Spine  -4.33904 -1.49673 -0.317171
Spine1  1.29308 0.794388 -10.9357
HEad  -6.43183 -23.0772 1.6282
LeftShoulder1  3.66382 -8.01191 -25.6743
LeftArm  -22.6647 -42.513 -58.0505
LeftForeArm  75.8408 -78.7122 -52.9831
LeftHand  -0.83121 -5.07688 9.51266
RightShoulder  2.42404 6.01612 19.0138
RightArm  -63.4128 14.5474 10.5264
RightForeArm  114.745 79.9325 105.99
RightHand  -1.20163 9.58603 -9.66478
LeftUpLeg  -4.24906 -0.250717 3.39702
LeftLeg  -0.171572 -17.1313 0.706081
LeftFoot  1.07155 0.790886 -7.32978
LeftToes  4.78685e-008 1.46778e-008 1.34523e-009
210
root  -4.6449 40.6908 -2.28124 -1.8822 -57.2971 4.28297
RightUpLeg  6.35878 -2.06631 2.44723
RightLeg  -7.77879 -49.2072 7.24805
RightFoot  -4.30575 -0.0483796 0.480489
RightToes  -3.13006e-008 1.75238e-005 3.56266e-009
Spine  -5.80525 -1.47036 -0.609055
Spine1  2.81784 0.981043 -10.8117
HEad  -6.89191 -23.1445 1.97002
LeftShoulder1  3.9104 -8.15588 -27.4708
LeftArm  -28.2219 -39.7711 -55.7157
LeftForeArm  88.3864 -80.1073 -67.4239
LeftHand  -0.893278 -5.2764 10.0009
RightShoulder  2.37173 5.63204 19.5579
RightArm  -67.5634 11.9047 11.5299
RightForeArm  111.842 79.8052 105.852
RightHand  -1.25259 9.34817 -10.213
LeftUpLeg  -3.63087 0.0278136 3.52746
LeftLeg  -0.399821 -17.1784 0.657109
LeftFoot  0.884988 0.779751 -7.32524
LeftToes  4.78685e-008 1.46778e-008 1.34523e-009
211
root  -4.76826 40.6888 -2.25525 -2.40671 -57.7161 4.60357
RightUpLeg  6.76326 -2.14112 2.33314
RightLeg  -7.54725 -48.7268 6.96306
RightFoot  -4.44083 -0.0570993 0.613419
RightToes  -3.13006e-008 1.75238e-005 3.56266e-009
Spine  -7.53197 -1.34948 -1.04392
Spine1  4.90179 1.32451 -10.5647
HEad  -7.95043 -22.5324 2.4267
LeftShoulder1  3.98529 -7.88809 -28.9529
LeftArm  -32.8837 -35.3122 -54.4128
LeftForeArm  110.539 -80.7927 -91.0773
LeftHand  -0.983253 -5.28476 10.9565
RightShoulder  2.34664 5.23615 20.4999
RightArm  -71.0799 8.90845 13.3172
RightForeArm  111.965 79.7806 106.163
RightHand  -1.29752 8.94137 -10.8239
LeftUpLeg  -2.89346 0.118075 3.48733
LeftLeg  -0.779641 -16.8012 0.691601
LeftFoot  0.729516 0.767623 -7.29653
LeftToes  4.78685e-008 1.46778e-008 1.34523e-009
212
root  -4.88309 40.6806 -2.23632 -2.94341 -58.0171 4.73946
RightUpLeg  7.51036 -2.18664 2.32659
RightLeg  -7.87289 -48.3896 7.12446
RightFoot  -4.54266 -0.056627 0.603317
RightToes  -3.13006e-008 1.75238e-005 3.56266e-009
Spine  -9.03206 -1.37562 -1.52651
Spine1  7.08009 1.52356 -10.297
HEad  -9.17713 -22.713 3.13571
LeftShoulder1  3.8575 -7.41595 -29.3012
LeftArm  -37.4191 -29.1711 -54.5575
LeftForeArm  133.195 -79.886 -114.521
LeftHand  -0.761902 -4.40258 9.31664
RightShoulder  2.58485 5.52203 22.4329
RightArm  -74.1241 5.27175 14.8005
RightForeArm  113.828 79.7397 107.453
RightHand  -1.49131 9.49335 -11.958
LeftUpLeg  -2.2322 0.206094 3.48961
LeftLeg  -0.703985 -16.6113 0.70326
LeftFoot  0.42563 0.740922 -7.2104
LeftToes  4.78685e-008 1.46778e-008 1.34523e-009
